#!OML:ASF F:\VICON\USERDATA\INSTALL\rory3\rory3.ASF
:FULLY-SPECIFIED
:DEGREES
54
root 0.36838611874725286 17.844241173877904 14.031393835916418 -1.5570063529220484 -7.382974609755186 -6.048727668017765
lfemur -19.999067999560683 -3.16458620956202 -13.161259046610478
ltibia 18.396771211534123
lfoot -3.1548874087846133 -1.8158427487549733
ltoes -6.254521094266504
rfemur 8.593232453944708 6.390743047321346 33.185394100140975
rtibia 34.83664036901839
rfoot -4.930602270325354 -7.210911026990227
rtoes 2.0915637093323385
lowerback 9.581233765009356 2.9277338138336306 5.999799947920868
upperback -0.10713264249005389 4.599660972219619 2.138935460917714
thorax -5.045292810350234 2.0550577194492075 -2.3030465633789983
lowerneck -15.993366076624936 -3.0756594119644864 -1.9352534197925428
upperneck 20.46632673804867 -4.128027015173284 1.2297233024483862
head 9.14924669954346 -1.9229658968805183 0.10824417451263535
lclavicle -1.952462434797384e-15 9.0748639793408e-16
lhumerus -37.43086393482657 11.303570469322635 78.74101820536683
lradius 16.847361031276023
lwrist -4.041582487450961
lhand -25.617846871888474 25.08108895897327
lfingers 7.12502
lthumb 1.0707636889479815 55.094456559513695
rclavicle -1.9521539760795093e-15 9.090123867494155e-16
rhumerus -24.11750533476348 -12.481584526031398 -82.04120882302317
rradius 29.181268951429722
rwrist 2.598568540600445
rhand -18.211504009834748 23.993509819689024
rfingers 7.12502
rthumb 7.930712191797797 -6.077027446447563
55
root 0.44129358886439685 17.93482562932136 15.031966521745044 -1.636948306344244 -5.489432824476744 -2.940825375704623
lfemur -17.60391981970058 -3.185156835898603 -17.34698266480081
ltibia 19.128699106470705
lfoot -2.8536025093770965 -2.843280325416795
ltoes -3.8280207686632286
rfemur 6.479774065532084 4.498465221229896 29.155009873800832
rtibia 40.71329530745079
rfoot -0.9754668808122622 -7.33198420519235
rtoes 3.9397581999965086
lowerback 9.262108447478912 2.5766655002200483 3.0685838883021965
upperback -0.16904241552651228 3.8618404882174295 1.2653456395586922
thorax -5.043433604246177 1.833247962930068 -1.548610287309332
lowerneck -16.12545625654747 -3.0305604838707243 -1.7892576425401394
upperneck 20.41742268378495 -4.060342038735064 1.1162517127696105
head 9.14874626687653 -1.8988707449261633 0.07106407257144942
lclavicle -1.952799063619607e-15 9.071763854150648e-16
lhumerus -37.30242645981858 9.758495863485 79.46477605032854
lradius 17.021665487979746
lwrist -2.737330568327618
lhand -25.402682024226294 25.225902862837362
lfingers 7.12502
lthumb 1.063629077183847 55.058560608793286
rclavicle -1.9521003807681654e-15 9.090084847871237e-16
rhumerus -24.731062707930032 -13.765239039291432 -81.71326608054692
rradius 28.620005392477694
rwrist 3.308524162942672
rhand -18.053118690664355 23.8619604116075
rfingers 7.12502
rthumb 8.062377451058056 -6.018599704333008
56
root 0.4747338795294088 17.99446899078073 15.532049717140113 -2.5372085165258307 -4.171003631395035 -1.5847620537776517
lfemur -14.654195917376029 -2.9148351975500333 -19.34762832009897
ltibia 21.02540923774903
lfoot -3.69191213571138 -3.273600729414616
ltoes -2.451750266075941
rfemur 2.7439023104173934 2.81502555073462 27.005900023742658
rtibia 48.055752812465855
rfoot 2.687258752900126 -9.13988279876226
rtoes 5.325382401215234
lowerback 9.714469536100669 2.2571888739245454 1.570535647170473
upperback -0.06083608433104648 3.4527909652594935 1.053361578852509
thorax -5.256882112064295 1.6569854050199186 -1.0686087532304014
lowerneck -15.884544126130361 -3.1075768567708217 -1.9997644524103735
upperneck 20.405595895249935 -4.187742122287989 1.2845281885871804
head 9.149470954356392 -1.9425746880416206 0.13917917183966882
lclavicle -1.9530752905935916e-15 9.069214688884574e-16
lhumerus -37.11309995263308 8.996144541531097 79.87876673757566
lradius 17.62319150129531
lwrist -0.055029816964216494
lhand -25.911995963821443 24.591040394302446
lfingers 7.12502
lthumb 0.48855017746855967 54.383754333849176
rclavicle -1.953761788411835e-15 9.077155211943487e-16
rhumerus -25.690216579269528 -15.252567897679262 -81.25244366829855
rradius 28.106849492716414
rwrist 4.004002013709718
rhand -17.99821674856241 23.5333469868685
rfingers 7.12502
rthumb 8.150097576572785 -6.333237918295175
57
root 0.5288033664657599 18.032194545691517 16.453592552545324 -2.903299400143238 -4.140112399630997 -0.8970558975265923
lfemur -12.100595873538058 -2.844188821546356 -20.346863285055722
ltibia 22.009866336757533
lfoot -5.389490476730827 -1.6084848867560013
ltoes -1.7859880505682697
rfemur -2.0867996927146457 2.0195451032615606 25.430049563262784
rtibia 55.75206060070418
rfoot 4.290834205203687 -10.936515996940125
rtoes 9.344846126100377
lowerback 9.96658750890385 2.2057476554929107 1.122919068609626
upperback -0.044939238199741105 3.2225847867959483 0.9065663157007919
thorax -5.4115058561511304 1.499352675279681 -1.01131356622439
lowerneck -15.781436130003684 -3.1362252556369965 -2.0863980177812893
upperneck 20.388389323573097 -4.22515926507425 1.4461398085939148
head 9.142046950454086 -1.953071879105748 0.20160350526066073
lclavicle -1.9529000720119347e-15 9.07082398151662e-16
lhumerus -36.411291165113695 8.627323012675244 79.91560017865497
lradius 18.769959014851317
lwrist 2.2259777573635375
lhand -27.50656033680977 22.237636643319586
lfingers 7.12502
lthumb -0.6759685964407316 52.68565915880363
rclavicle -1.953968053688044e-15 9.075719569701059e-16
rhumerus -26.20142515495759 -16.35377388936232 -81.1020976736285
rradius 27.707870356916978
rwrist 4.476139163091018
rhand -17.8015286682821 22.706322188755358
rfingers 7.12502
rthumb 8.403027265110188 -7.085822226659761
58
root 0.5619872602416662 18.087311616567327 17.300441464980825 -3.4053132602542577 -3.969398523474323 0.17608815144701095
lfemur -9.460793759935866 -3.0684076355292063 -21.75530637547933
ltibia 22.27974081431431
lfoot -7.413611703629743 0.03670476049695903
ltoes 0.25657886720776535
rfemur -7.391010257821449 1.5901024301432036 23.854930747677464
rtibia 62.03128688586155
rfoot 2.551966541893142 -11.639869398615264
rtoes 6.612451642981213
lowerback 10.39547859212342 2.074149595348912 0.1698173638866436
upperback 0.13291574200278578 2.9252409767160144 0.753649996465907
thorax -5.533057741913888 1.4010380493801788 -0.4907528592103988
lowerneck -15.838595969806518 -3.0591888862316954 -2.019815749707017
upperneck 20.436501477737377 -4.106858228682799 1.3563847980143078
head 9.160332416919852 -1.909778726933594 0.1831877643124019
lclavicle -1.952703054041503e-15 9.072632026143388e-16
lhumerus -35.11270502229794 7.517609693130288 80.52142056151366
lradius 20.00548860729856
lwrist 2.231808601297941
lhand -27.199487444773023 23.10178218564431
lfingers 7.12502
lthumb -0.4898872824244957 53.44110232784482
rclavicle -1.951757800560575e-15 9.09772042948868e-16
rhumerus -26.590210184493134 -16.761266870021707 -80.9873933425937
rradius 27.18986197269233
rwrist 4.552888229550532
rhand -17.7740283392592 22.686652434417226
rfingers 7.12502
rthumb 8.424620030462435 -6.996388291693939
